{"accessors" : [{"bufferView" : 0, "byteOffset" : 0, "componentType" : 5125, "count" : 169716, "type" : "SCALAR", "max" : [141496], "min" : [0]}, {"bufferView" : 1, "byteOffset" : 0, "componentType" : 5126, "count" : 141497, "type" : "VEC3", "max" : [28.161773681640625, 90.54586791992188, 7236.3857421875], "min" : [-111.18125915527344, -79.5445556640625, 7146.24658203125], "name" : "POSITION"}, {"bufferView" : 1, "byteOffset" : 12, "componentType" : 5126, "count" : 141497, "type" : "VEC2", "max" : [0.8169159889221191, -0.29855799674987793], "min" : [0.18308399617671967, -0.985194981098175], "name" : "TEXCOORD_0"}, {"bufferView" : 1, "byteOffset" : 20, "componentType" : 5126, "count" : 141497, "type" : "VEC3", "max" : [0.9997513890266418, 0.9997454285621643, 0.7115663886070251], "min" : [-0.9969539642333984, -0.980998158454895, -1.0000042915344238], "name" : "NORMAL"}], "asset" : {"generator" : "Aspose.3D 22.12", "version" : "2.0"}, "buffers" : [{"uri" : "buffer.bin", "byteLength" : 6109784}], "bufferViews" : [{"buffer" : 0, "byteOffset" : 0, "byteLength" : 678864, "target" : 34963}, {"buffer" : 0, "byteOffset" : 678868, "byteLength" : 5430912, "byteStride" : 32, "target" : 34962}], "meshes" : [{"primitives" : [{"attributes" : {"POSITION" : 1, "TEXCOORD_0" : 2, "NORMAL" : 3}, "indices" : 0, "mode" : 4}], "name" : ""}], "nodes" : [{"mesh" : 0, "name" : ""}], "scene" : 0, "scenes" : [{"nodes" : [0]}]}