{"accessors" : [{"bufferView" : 0, "byteOffset" : 0, "componentType" : 5125, "count" : 169716, "type" : "SCALAR", "max" : [141496], "min" : [0]}, {"bufferView" : 1, "byteOffset" : 0, "componentType" : 5126, "count" : 141497, "type" : "VEC3", "max" : [71.40567016601562, 84.60542297363281, 6506.49462890625], "min" : [-70.29147338867188, -77.22704315185547, 6414.6787109375], "name" : "POSITION"}, {"bufferView" : 1, "byteOffset" : 12, "componentType" : 5126, "count" : 141497, "type" : "VEC2", "max" : [0.8169159889221191, -0.29855799674987793], "min" : [0.18308399617671967, -0.985194981098175], "name" : "TEXCOORD_0"}, {"bufferView" : 1, "byteOffset" : 20, "componentType" : 5126, "count" : 141497, "type" : "VEC3", "max" : [0.9997169971466064, 0.9995913505554199, 0.7404853105545044], "min" : [-0.9994404911994934, -0.8889172673225403, -0.9999611973762512], "name" : "NORMAL"}], "asset" : {"generator" : "Aspose.3D 23.3", "version" : "2.0"}, "buffers" : [{"uri" : "buffer.bin", "byteLength" : 6109784}], "bufferViews" : [{"buffer" : 0, "byteOffset" : 0, "byteLength" : 678864, "target" : 34963}, {"buffer" : 0, "byteOffset" : 678868, "byteLength" : 5430912, "byteStride" : 32, "target" : 34962}], "meshes" : [{"primitives" : [{"attributes" : {"POSITION" : 1, "TEXCOORD_0" : 2, "NORMAL" : 3}, "indices" : 0, "mode" : 4}], "name" : ""}], "nodes" : [{"mesh" : 0, "name" : ""}], "scene" : 0, "scenes" : [{"nodes" : [0]}]}